<?xml version="1.0" encoding="UTF-8"?>
<svg width="48px" height="48px" viewBox="0 0 48 48" version="1.1" xmlns="http://www.w3.org/2000/svg" xmlns:xlink="http://www.w3.org/1999/xlink">
    <!-- Generator: Sketch 50.2 (55047) - http://www.bohemiancoding.com/sketch -->
    <title>关闭</title>
    <desc>Created with Sketch.</desc>
    <defs></defs>
    <g id="关闭" stroke="none" stroke-width="1" fill="none" fill-rule="evenodd">
        <path d="M24.0028826,26.5809184 L15.4235592,35.2038488 C14.644493,35.9868748 13.3781671,35.9900848 12.5951412,35.2110187 C11.8121152,34.4319525 11.8089051,33.1656266 12.5879712,32.3826006 L21.0330935,23.8945536 L12.5830299,15.4114516 C11.8035067,14.6288806 11.8059774,13.3625531 12.5885484,12.5830299 C13.3711194,11.8035067 14.637447,11.8059774 15.4169702,12.5885484 L24.0028826,21.2080304 L32.5887951,12.5885484 C33.3683183,11.8059774 34.6346458,11.8035067 35.4172168,12.5830299 C36.1997878,13.3625531 36.2022586,14.6288806 35.4227354,15.4114516 L26.9726717,23.8945536 L35.417794,32.3826006 C36.1968602,33.1656266 36.1936501,34.4319525 35.4106241,35.2110187 C34.6275981,35.9900848 33.3612722,35.9868748 32.5822061,35.2038488 L24.0028826,26.5809184 Z" id="Combined-Shape" fill="#B9BECD" fill-rule="nonzero"></path>
    </g>
</svg>