<?xml version="1.0" encoding="UTF-8"?>
<svg width="48px" height="48px" viewBox="0 0 48 48" version="1.1" xmlns="http://www.w3.org/2000/svg" xmlns:xlink="http://www.w3.org/1999/xlink">
    <!-- Generator: Sketch 50.2 (55047) - http://www.bohemiancoding.com/sketch -->
    <title>清除</title>
    <desc>Created with Sketch.</desc>
    <defs></defs>
    <g id="清除" stroke="none" stroke-width="1" fill="none" fill-rule="evenodd">
        <path d="M24.4220302,20.8613439 L20.3349823,16.6133523 C19.569158,15.8173706 18.3030641,15.7929232 17.5070824,16.5587475 C16.7111006,17.3245719 16.6866533,18.5906658 17.4524776,19.3866475 L21.8407143,23.9476885 L17.4551199,28.5114033 C16.6897683,29.3078396 16.7149674,30.5739188 17.5114036,31.3392704 C18.3078399,32.104622 19.5739191,32.0794229 20.3392707,31.2829866 L24.4220302,27.0344063 L28.5047897,31.2829866 C29.2701413,32.0794229 30.5362205,32.104622 31.3326568,31.3392704 C32.129093,30.5739188 32.1542921,29.3078396 31.3889405,28.5114033 L27.0033461,23.9476885 L31.3915828,19.3866475 C32.1574071,18.5906658 32.1329597,17.3245719 31.336978,16.5587475 C30.5409963,15.7929232 29.2749024,15.8173706 28.509078,16.6133523 L24.4220302,20.8613439 Z M24,6 C33.9540011,6 42,14.0460022 42,24 C42,33.9539977 33.9539977,42 24,42 C14.0460005,42 6,33.9539977 6,24 C6,14.0460005 14.0460005,6 24,6 Z" id="Combined-Shape" fill="#B9BECD" fill-rule="nonzero"></path>
    </g>
</svg>